<svg class="logo-svg" aria-label="Woodfine Capital Projects" role="img" viewBox="0 0 144 36" width="320" height="80" version="1.1" xmlns="http://www.w3.org/2000/svg" style="width: 320px; height: 80px">
  <g class="institutional-fill" fill="#111827" fill-rule="evenodd">
    <path d="M 16.069 29.8287 L 16.069 31.0989 L 26.233 31.0989 L 26.233 29.8287 Z"></path>
    <path d="M 118.051 29.8287 L 118.051 31.0989 L 128.216 31.0989 L 128.216 29.8287 Z"></path>
    <path d="M 19.7019 23.1944 L 23.3651 23.1944 L 26.3901 9.48497 L 26.4456 9.48497 L 29.2485 23.1944 L 32.9395 23.1944 L 37.3244 3.15753 L 33.7444 3.15753 L 31.0802 16.2565 L 31.0247 16.2565 L 28.2495 3.15753 L 24.5585 3.15753 L 21.811 16.2565 L 21.7555 16.2565 L 19.0636 3.15753 L 15.5113 3.15753 L 19.7019 23.1944 Z M 38.5452 16.756 C 38.5452 21.6958 41.1539 23.472 44.8727 23.472 C 48.5914 23.472 51.2001 21.6958 51.2001 16.756 L 51.2001 9.59598 C 51.2001 4.65613 48.5914 2.88 44.8727 2.88 C 41.1539 2.88 38.5452 4.65613 38.5452 9.59598 L 38.5452 16.756 Z M 42.375 9.09645 C 42.375 6.87629 43.3463 6.26575 44.8727 6.26575 C 46.399 6.26575 47.3704 6.87629 47.3704 9.09645 L 47.3704 17.2555 C 47.3704 19.4757 46.399 20.0862 44.8727 20.0862 C 43.3463 20.0862 42.375 19.4757 42.375 17.2555 L 42.375 9.09645 Z M 53.4203 16.756 C 53.4203 21.6958 56.029 23.472 59.7477 23.472 C 63.4665 23.472 66.0752 21.6958 66.0752 16.756 L 66.0752 9.59598 C 66.0752 4.65613 63.4665 2.88 59.7477 2.88 C 56.029 2.88 53.4203 4.65613 53.4203 9.59598 L 53.4203 16.756 Z M 57.25 9.09645 C 57.25 6.87629 58.2214 6.26575 59.7477 6.26575 C 61.2741 6.26575 62.2454 6.87629 62.2454 9.09645 L 62.2454 17.2555 C 62.2454 19.4757 61.2741 20.0862 59.7477 20.0862 C 58.2214 20.0862 57.25 19.4757 57.25 17.2555 L 57.25 9.09645 Z M 68.4896 23.1944 L 73.818 23.1944 C 78.2028 23.1944 80.6449 21.3073 80.8114 16.2565 L 80.8114 10.0955 C 80.6449 5.04466 78.2028 3.15753 73.818 3.15753 L 68.4896 3.15753 L 68.4896 23.1944 Z M 72.3194 6.54326 L 73.6514 6.54326 C 76.0381 6.54326 76.9817 7.70885 76.9817 10.5395 L 76.9817 15.8124 C 76.9817 18.8096 75.7606 19.8087 73.6514 19.8087 L 72.3194 19.8087 L 72.3194 6.54326 Z M 86.9169 23.1944 L 86.9169 14.5358 L 91.7457 14.5358 L 91.7457 11.1501 L 86.9169 11.1501 L 86.9169 6.54326 L 93.0778 6.54326 L 93.0778 3.15753 L 83.0871 3.15753 L 83.0871 23.1944 L 86.9169 23.1944 Z M 99.4603 23.1944 L 99.4603 3.15753 L 95.6306 3.15753 L 95.6306 23.1944 L 99.4603 23.1944 Z M 105.594 23.1944 L 105.594 10.262 L 105.649 10.262 L 111.505 23.1944 L 115.168 23.1944 L 115.168 3.15753 L 111.671 3.15753 L 111.671 15.0354 L 111.616 15.0354 L 106.287 3.15753 L 102.097 3.15753 L 102.097 23.1944 L 105.594 23.1944 Z M 128.489 23.1944 L 128.489 19.8087 L 121.551 19.8087 L 121.551 14.5358 L 126.629 14.5358 L 126.629 11.1501 L 121.551 11.1501 L 121.551 6.54326 L 128.211 6.54326 L 128.211 3.15753 L 117.721 3.15753 L 117.721 23.1944 L 128.489 23.1944 Z"></path>
  </g>
</svg>
